{"title":"Vera S06E04 - The Sea Glass x264 RB58.mp4","uid":13644136,"size":1011202541,"categoryP":"video","categoryS":"tv_shows","magnet":"?xt=urn:btih:48aa71624d57c968acb535568eac961d2889993b&amp;dn=Vera+S06E04+-+The+Sea+Glass+x264+RB58.mp4&amp;tr=udp%3A%2F%2Ftracker.leechers-paradise.org%3A6969&amp;tr=udp%3A%2F%2Fzer0day.ch%3A1337&amp;tr=udp%3A%2F%2Fopen.demonii.com%3A1337&amp;tr=udp%3A%2F%2Ftracker.coppersurfer.tk%3A6969&amp;tr=udp%3A%2F%2Fexodus.desync.com%3A6969","seeders":1,"leechers":0,"uploader":"RedBaron58","files":1,"time":1456150185,"description":"Vera S06E04 - The Sea Glass x264 mp4\r\n \nhttp://www.imdb.com/title/tt1693592/\r\n\r\nTrailer: (Previous series)\r\n\r\n\r\nPlease be patient My intial upload speed is limited.\r\nThank you for your kind comments and feedback on my other torrents, your feedback is welcome.\r\n\r\n\r\nAbout the Episode:\r\nA fisherman's body is found tangled up in a North Sea trawler's net. \r\nVera and her team investigate with the help of the local harbourmaster, and find the dead man's \r\nsons pointing the finger at the owner of a fish market, with whom they have a long-running feud. \r\nRetracing the dead man's steps, Vera discovers when he drowned and tracks down a waitress \r\nwho may have been one of the last people to see him alive. However, the case becomes more \r\ncomplicated when a witness runs away and a boat belonging to the dead man's sister-in-law \r\ngoes up in flames.\r\n\r\n\r\nI hope you enjoy.\r\n\r\n\r\nTechnical:\r\n\r\nGeneral\r\nComplete name                            : G:Vera S06E04 - The Sea Glass x264 RB58.mp4\r\nFormat                                   : MPEG-4\r\nFormat profile                           : Base Media\r\nCodec ID                                 : isom\r\nFile size                                : 964 MiB\r\nDuration                                 : 1h 28mn\r\nOverall bit rate                         : 1 521 Kbps\r\nWriting application                      : Lavf54.63.104\r\n\r\nVideo\r\nID                                       : 1\r\nFormat                                   : AVC\r\nFormat/Info                              : Advanced Video Codec\r\nFormat profile                           :   \r\nFormat settings, CABAC                   : Yes\r\nFormat settings, ReFrames                : 4 frames\r\nCodec ID                                 : avc1\r\nCodec ID/Info                            : Advanced Video Coding\r\nDuration                                 : 1h 28mn\r\nBit rate                                 : 1 400 Kbps\r\nWidth                                    : 832 pixels\r\nHeight                                   : 468 pixels\r\nDisplay aspect ratio                     : 16:9\r\nFrame rate mode                          : Constant\r\nFrame rate                               : 25.000 fps\r\nColor space                              : YUV\r\nChroma subsampling                       : 4:2:0\r\nBit depth                                : 8 bits\r\nScan type                                : Progressive\r\nBits/(Pixel*Frame)                       : 0.144\r\nStream size                              : 888 MiB (92%)\r\nWriting library                          : x264 core 123 r2189 35cf912\r\nEncoding settings                        : cabac=1 / ref=3 / deblock=1:0:0\r\n\r\nAudio\r\nID                                       : 2\r\nFormat                                   : AAC\r\nFormat/Info                              : Advanced Audio Codec\r\nFormat profile                           : LC\r\nCodec ID                                 : 40\r\nDuration                                 : 1h 28mn\r\nBit rate mode                            : Constant\r\nBit rate                                 : 112 Kbps\r\nChannel(s)                               : 2 channels\r\nChannel positions                        : Front: L R\r\nSampling rate                            : 48.0 KHz\r\nCompression mode                         : Lossy\r\nStream size                              : 71.1 MiB (7%)","torrent":{"xt":"urn:btih:48aa71624d57c968acb535568eac961d2889993b","amp;dn":"Vera+S06E04+-+The+Sea+Glass+x264+RB58.mp4","amp;tr":["udp%3A%2F%2Ftracker.leechers-paradise.org%3A6969","udp%3A%2F%2Fzer0day.ch%3A1337","udp%3A%2F%2Fopen.demonii.com%3A1337","udp%3A%2F%2Ftracker.coppersurfer.tk%3A6969","udp%3A%2F%2Fexodus.desync.com%3A6969"],"infoHash":"48aa71624d57c968acb535568eac961d2889993b","infoHashBuffer":{"type":"Buffer","data":[72,170,113,98,77,87,201,104,172,181,53,86,142,172,150,29,40,137,153,59]},"announce":[],"urlList":[]}}